# MagicaVoxel @ Ephtracy

# group
g bed

# material
mtllib bed.mtl
usemtl palette

# normals
vn -1 0 0
vn 1 0 0
vn 0 0 1
vn 0 0 -1
vn 0 -1 0
vn 0 1 0

# texcoords
vt 0.373047 0.5
vt 0.419922 0.5
vt 0.958984 0.5
vt 0.962891 0.5

# verts
v -20 11 -15
v -20 11 -40
v -20 12 20
v -20 12 -15
v -20 13 22
v -20 13 20
v -20 14 23
v -20 14 22
v -20 17 -39
v -20 17 -40
v -20 18 23
v -20 18 -39
v -19 0 40
v -19 0 34
v -19 0 -34
v -19 0 -40
v -19 7 34
v -19 7 -34
v -19 11 40
v -19 11 -15
v -19 11 -40
v -19 12 40
v -19 12 20
v -19 12 -15
v -19 13 22
v -19 13 20
v -19 14 23
v -19 14 22
v -19 16 40
v -19 16 39
v -19 17 39
v -19 17 23
v -19 17 -39
v -19 17 -40
v -19 18 22
v -19 18 -39
v -19 18 -40
v -19 19 22
v -19 19 -39
v -18 16 40
v -18 16 39
v -18 17 40
v -18 17 39
v -11 17 36
v -11 17 27
v -11 18 36
v -11 18 27
v -10 17 37
v -10 17 36
v -10 17 27
v -10 17 26
v -10 18 37
v -10 18 36
v -10 18 27
v -10 18 26
v -9 18 35
v -9 18 28
v -9 19 35
v -9 19 28
v 9 17 37
v 9 17 36
v 9 17 27
v 9 17 26
v 9 18 37
v 9 18 36
v 9 18 27
v 9 18 26
v -8 17 37
v -8 17 36
v -8 17 27
v -8 17 26
v -8 18 37
v -8 18 36
v -8 18 27
v -8 18 26
v 10 18 35
v 10 18 28
v 10 19 35
v 10 19 28
v 11 17 37
v 11 17 36
v 11 17 27
v 11 17 26
v 11 18 37
v 11 18 36
v 11 18 27
v 11 18 26
v 12 17 36
v 12 17 27
v 12 18 36
v 12 18 27
v 18 16 40
v 18 16 39
v 18 17 40
v 18 17 39
v 19 0 40
v 19 0 34
v 19 0 -34
v 19 0 -40
v 19 7 34
v 19 7 -34
v 19 11 40
v 19 11 7
v 19 11 -40
v 19 12 40
v 19 12 19
v 19 12 7
v 19 13 22
v 19 13 19
v 19 14 23
v 19 14 22
v 19 16 40
v 19 16 39
v 19 17 39
v 19 17 23
v 19 17 -39
v 19 17 -40
v 19 18 22
v 19 18 -39
v 19 18 -40
v 19 19 22
v 19 19 -39
v 20 11 7
v 20 11 -40
v 20 12 19
v 20 12 7
v 20 13 22
v 20 13 19
v 20 14 23
v 20 14 22
v 20 17 -39
v 20 17 -40
v 20 18 23
v 20 18 -39
v -19 0 40
v -19 11 40
v -19 12 40
v -19 16 40
v -18 11 40
v -18 12 40
v -18 16 40
v -18 17 40
v 18 11 40
v 18 12 40
v 18 16 40
v 18 17 40
v 19 0 40
v 19 11 40
v 19 12 40
v 19 16 40
v -19 16 39
v -19 17 39
v -18 16 39
v -18 17 39
v 18 16 39
v 18 17 39
v 19 16 39
v 19 17 39
v -10 17 37
v -10 18 37
v -8 17 37
v -8 18 37
v 9 17 37
v 9 18 37
v 11 17 37
v 11 18 37
v -11 17 36
v -11 18 36
v -10 17 36
v -10 18 36
v -8 17 36
v -8 18 36
v 9 17 36
v 9 18 36
v 11 17 36
v 11 18 36
v 12 17 36
v 12 18 36
v -9 18 35
v -9 19 35
v 10 18 35
v 10 19 35
v -20 14 23
v -20 18 23
v -19 14 23
v -19 17 23
v 19 14 23
v 19 17 23
v 20 14 23
v 20 18 23
v -20 13 22
v -20 14 22
v -19 13 22
v -19 14 22
v -19 18 22
v -19 19 22
v 19 13 22
v 19 14 22
v 19 18 22
v 19 19 22
v 20 13 22
v 20 14 22
v -20 12 20
v -20 13 20
v -19 12 20
v -19 13 20
v 19 12 19
v 19 13 19
v 20 12 19
v 20 13 19
v 19 11 7
v 19 12 7
v 20 11 7
v 20 12 7
v -20 11 -15
v -20 12 -15
v -19 11 -15
v -19 12 -15
v -19 0 -34
v -19 7 -34
v 19 0 -34
v 19 7 -34
v -19 0 34
v -19 7 34
v 19 0 34
v 19 7 34
v -9 18 28
v -9 19 28
v 10 18 28
v 10 19 28
v -11 17 27
v -11 18 27
v -10 17 27
v -10 18 27
v -8 17 27
v -8 18 27
v 9 17 27
v 9 18 27
v 11 17 27
v 11 18 27
v 12 17 27
v 12 18 27
v -10 17 26
v -10 18 26
v -8 17 26
v -8 18 26
v 9 17 26
v 9 18 26
v 11 17 26
v 11 18 26
v -20 17 -39
v -20 18 -39
v -19 17 -39
v -19 18 -39
v -19 19 -39
v 19 17 -39
v 19 18 -39
v 19 19 -39
v 20 17 -39
v 20 18 -39
v -20 11 -40
v -20 17 -40
v -19 0 -40
v -19 11 -40
v -19 17 -40
v -19 18 -40
v 19 0 -40
v 19 11 -40
v 19 17 -40
v 19 18 -40
v 20 11 -40
v 20 17 -40
v -19 0 40
v 19 0 40
v -19 0 34
v 19 0 34
v -19 0 -34
v 19 0 -34
v -19 0 -40
v 19 0 -40
v -19 7 34
v 19 7 34
v -19 7 -34
v 19 7 -34
v 19 11 7
v 20 11 7
v -20 11 -15
v -19 11 -15
v -20 11 -40
v -19 11 -40
v 19 11 -40
v 20 11 -40
v -20 12 20
v -19 12 20
v 19 12 19
v 20 12 19
v 19 12 7
v 20 12 7
v -20 12 -15
v -19 12 -15
v -20 13 22
v -19 13 22
v 19 13 22
v 20 13 22
v -20 13 20
v -19 13 20
v 19 13 19
v 20 13 19
v -20 14 23
v -19 14 23
v 19 14 23
v 20 14 23
v -20 14 22
v -19 14 22
v 19 14 22
v 20 14 22
v -19 16 40
v -18 16 40
v 18 16 40
v 19 16 40
v -19 16 39
v -18 16 39
v 18 16 39
v 19 16 39
v -18 17 40
v 18 17 40
v -19 17 39
v -18 17 39
v 18 17 39
v 19 17 39
v -10 17 37
v -8 17 37
v 9 17 37
v 11 17 37
v -11 17 36
v -10 17 36
v -8 17 36
v 9 17 36
v 11 17 36
v 12 17 36
v -11 17 27
v -10 17 27
v -8 17 27
v 9 17 27
v 11 17 27
v 12 17 27
v -10 17 26
v -8 17 26
v 9 17 26
v 11 17 26
v -19 17 23
v 19 17 23
v -20 17 -39
v -19 17 -39
v 19 17 -39
v 20 17 -39
v -20 17 -40
v -19 17 -40
v 19 17 -40
v 20 17 -40
v -10 18 37
v -8 18 37
v 9 18 37
v 11 18 37
v -11 18 36
v -10 18 36
v -8 18 36
v 9 18 36
v 11 18 36
v 12 18 36
v -9 18 35
v 10 18 35
v -9 18 28
v 10 18 28
v -11 18 27
v -10 18 27
v -8 18 27
v 9 18 27
v 11 18 27
v 12 18 27
v -10 18 26
v -8 18 26
v 9 18 26
v 11 18 26
v -20 18 23
v 20 18 23
v -19 18 22
v 19 18 22
v -20 18 -39
v -19 18 -39
v 19 18 -39
v 20 18 -39
v -19 18 -40
v 19 18 -40
v -9 19 35
v 10 19 35
v -9 19 28
v 10 19 28
v -19 19 22
v 19 19 22
v -19 19 -39
v 19 19 -39

# faces
f 4/2/1 2/2/1 1/2/1
f 6/2/1 4/2/1 3/2/1
f 8/2/1 6/2/1 5/2/1
f 9/2/1 2/2/1 4/2/1
f 9/2/1 8/2/1 7/2/1
f 9/2/1 6/2/1 8/2/1
f 9/2/1 4/2/1 6/2/1
f 10/2/1 2/2/1 9/2/1
f 11/2/1 9/2/1 7/2/1
f 12/2/1 9/2/1 11/2/1
f 17/1/1 14/1/1 13/1/1
f 18/1/1 16/1/1 15/1/1
f 19/1/1 17/1/1 13/1/1
f 19/1/1 18/1/1 17/1/1
f 20/1/1 18/1/1 19/1/1
f 21/1/1 16/1/1 18/1/1
f 21/1/1 18/1/1 20/1/1
f 22/3/1 20/3/1 19/3/1
f 23/3/1 20/3/1 22/3/1
f 24/3/1 20/3/1 23/3/1
f 25/4/1 23/4/1 22/4/1
f 26/4/1 23/4/1 25/4/1
f 27/4/1 25/4/1 22/4/1
f 28/4/1 25/4/1 27/4/1
f 29/4/1 27/4/1 22/4/1
f 30/4/1 27/4/1 29/4/1
f 31/4/1 27/4/1 30/4/1
f 32/4/1 27/4/1 31/4/1
f 36/2/1 34/2/1 33/2/1
f 37/2/1 34/2/1 36/2/1
f 38/2/1 36/2/1 35/2/1
f 39/2/1 36/2/1 38/2/1
f 42/4/1 41/4/1 40/4/1
f 43/4/1 41/4/1 42/4/1
f 46/2/1 45/2/1 44/2/1
f 47/2/1 45/2/1 46/2/1
f 52/2/1 49/2/1 48/2/1
f 53/2/1 49/2/1 52/2/1
f 54/2/1 51/2/1 50/2/1
f 55/2/1 51/2/1 54/2/1
f 58/2/1 57/2/1 56/2/1
f 59/2/1 57/2/1 58/2/1
f 64/2/1 61/2/1 60/2/1
f 65/2/1 61/2/1 64/2/1
f 66/2/1 63/2/1 62/2/1
f 67/2/1 63/2/1 66/2/1
f 68/2/2 69/2/2 72/2/2
f 72/2/2 69/2/2 73/2/2
f 70/2/2 71/2/2 74/2/2
f 74/2/2 71/2/2 75/2/2
f 76/2/2 77/2/2 78/2/2
f 78/2/2 77/2/2 79/2/2
f 80/2/2 81/2/2 84/2/2
f 84/2/2 81/2/2 85/2/2
f 82/2/2 83/2/2 86/2/2
f 86/2/2 83/2/2 87/2/2
f 88/2/2 89/2/2 90/2/2
f 90/2/2 89/2/2 91/2/2
f 92/4/2 93/4/2 94/4/2
f 94/4/2 93/4/2 95/4/2
f 96/1/2 97/1/2 100/1/2
f 98/1/2 99/1/2 101/1/2
f 96/1/2 100/1/2 102/1/2
f 100/1/2 101/1/2 102/1/2
f 102/1/2 101/1/2 103/1/2
f 101/1/2 99/1/2 104/1/2
f 103/1/2 101/1/2 104/1/2
f 102/3/2 103/3/2 105/3/2
f 105/3/2 103/3/2 106/3/2
f 106/3/2 103/3/2 107/3/2
f 105/4/2 106/4/2 108/4/2
f 108/4/2 106/4/2 109/4/2
f 105/4/2 108/4/2 110/4/2
f 110/4/2 108/4/2 111/4/2
f 105/4/2 110/4/2 112/4/2
f 112/4/2 110/4/2 113/4/2
f 113/4/2 110/4/2 114/4/2
f 114/4/2 110/4/2 115/4/2
f 116/2/2 117/2/2 119/2/2
f 119/2/2 117/2/2 120/2/2
f 118/2/2 119/2/2 121/2/2
f 121/2/2 119/2/2 122/2/2
f 123/2/2 124/2/2 126/2/2
f 125/2/2 126/2/2 128/2/2
f 127/2/2 128/2/2 130/2/2
f 126/2/2 124/2/2 131/2/2
f 129/2/2 130/2/2 131/2/2
f 130/2/2 128/2/2 131/2/2
f 128/2/2 126/2/2 131/2/2
f 131/2/2 124/2/2 132/2/2
f 129/2/2 131/2/2 133/2/2
f 133/2/2 131/2/2 134/2/2
f 139/1/3 136/1/3 135/1/3
f 139/3/3 137/3/3 136/3/3
f 140/4/3 138/4/3 137/4/3
f 140/3/3 137/3/3 139/3/3
f 141/4/3 138/4/3 140/4/3
f 143/1/3 139/1/3 135/1/3
f 143/4/3 142/4/3 141/4/3
f 143/4/3 141/4/3 140/4/3
f 143/4/3 140/4/3 139/4/3
f 144/4/3 142/4/3 143/4/3
f 145/4/3 142/4/3 144/4/3
f 146/4/3 142/4/3 145/4/3
f 147/1/3 143/1/3 135/1/3
f 148/3/3 144/3/3 143/3/3
f 148/1/3 143/1/3 147/1/3
f 149/4/3 145/4/3 144/4/3
f 149/3/3 144/3/3 148/3/3
f 150/4/3 145/4/3 149/4/3
f 153/4/3 152/4/3 151/4/3
f 154/4/3 152/4/3 153/4/3
f 157/4/3 156/4/3 155/4/3
f 158/4/3 156/4/3 157/4/3
f 161/2/3 160/2/3 159/2/3
f 162/2/3 160/2/3 161/2/3
f 165/2/3 164/2/3 163/2/3
f 166/2/3 164/2/3 165/2/3
f 169/2/3 168/2/3 167/2/3
f 170/2/3 168/2/3 169/2/3
f 173/2/3 172/2/3 171/2/3
f 174/2/3 172/2/3 173/2/3
f 177/2/3 176/2/3 175/2/3
f 178/2/3 176/2/3 177/2/3
f 181/2/3 180/2/3 179/2/3
f 182/2/3 180/2/3 181/2/3
f 185/2/3 184/2/3 183/2/3
f 186/2/3 184/2/3 185/2/3
f 188/2/3 184/2/3 186/2/3
f 189/2/3 188/2/3 187/2/3
f 190/2/3 184/2/3 188/2/3
f 190/2/3 188/2/3 189/2/3
f 193/2/3 192/2/3 191/2/3
f 194/2/3 192/2/3 193/2/3
f 199/2/3 196/2/3 195/2/3
f 200/2/3 196/2/3 199/2/3
f 201/2/3 198/2/3 197/2/3
f 202/2/3 198/2/3 201/2/3
f 205/2/3 204/2/3 203/2/3
f 206/2/3 204/2/3 205/2/3
f 209/2/3 208/2/3 207/2/3
f 210/2/3 208/2/3 209/2/3
f 213/2/3 212/2/3 211/2/3
f 214/2/3 212/2/3 213/2/3
f 217/2/3 216/2/3 215/2/3
f 218/2/3 216/2/3 217/2/3
f 221/1/3 220/1/3 219/1/3
f 222/1/3 220/1/3 221/1/3
f 223/1/4 224/1/4 225/1/4
f 225/1/4 224/1/4 226/1/4
f 227/2/4 228/2/4 229/2/4
f 229/2/4 228/2/4 230/2/4
f 231/2/4 232/2/4 233/2/4
f 233/2/4 232/2/4 234/2/4
f 235/2/4 236/2/4 237/2/4
f 237/2/4 236/2/4 238/2/4
f 239/2/4 240/2/4 241/2/4
f 241/2/4 240/2/4 242/2/4
f 243/2/4 244/2/4 245/2/4
f 245/2/4 244/2/4 246/2/4
f 247/2/4 248/2/4 249/2/4
f 249/2/4 248/2/4 250/2/4
f 251/2/4 252/2/4 253/2/4
f 253/2/4 252/2/4 254/2/4
f 254/2/4 255/2/4 257/2/4
f 257/2/4 255/2/4 258/2/4
f 256/2/4 257/2/4 259/2/4
f 259/2/4 257/2/4 260/2/4
f 261/2/4 262/2/4 264/2/4
f 264/2/4 262/2/4 265/2/4
f 263/1/4 264/1/4 267/1/4
f 265/2/4 266/2/4 268/2/4
f 267/1/4 264/1/4 268/1/4
f 264/2/4 265/2/4 268/2/4
f 268/2/4 266/2/4 269/2/4
f 269/2/4 266/2/4 270/2/4
f 268/2/4 269/2/4 271/2/4
f 271/2/4 269/2/4 272/2/4
f 275/1/5 274/1/5 273/1/5
f 276/1/5 274/1/5 275/1/5
f 279/1/5 278/1/5 277/1/5
f 280/1/5 278/1/5 279/1/5
f 283/1/5 282/1/5 281/1/5
f 284/1/5 282/1/5 283/1/5
f 289/2/5 288/2/5 287/2/5
f 290/2/5 288/2/5 289/2/5
f 291/2/5 286/2/5 285/2/5
f 292/2/5 286/2/5 291/2/5
f 297/2/5 296/2/5 295/2/5
f 298/2/5 296/2/5 297/2/5
f 299/2/5 294/2/5 293/2/5
f 300/2/5 294/2/5 299/2/5
f 305/2/5 302/2/5 301/2/5
f 306/2/5 302/2/5 305/2/5
f 307/2/5 304/2/5 303/2/5
f 308/2/5 304/2/5 307/2/5
f 313/2/5 310/2/5 309/2/5
f 314/2/5 310/2/5 313/2/5
f 315/2/5 312/2/5 311/2/5
f 316/2/5 312/2/5 315/2/5
f 317/4/6 318/4/6 321/4/6
f 321/4/6 318/4/6 322/4/6
f 319/4/6 320/4/6 323/4/6
f 323/4/6 320/4/6 324/4/6
f 325/4/6 326/4/6 328/4/6
f 328/4/6 326/4/6 329/4/6
f 327/4/6 328/4/6 331/4/6
f 329/4/6 330/4/6 331/4/6
f 328/4/6 329/4/6 331/4/6
f 331/4/6 330/4/6 332/4/6
f 332/4/6 330/4/6 333/4/6
f 333/4/6 330/4/6 334/4/6
f 327/4/6 331/4/6 335/4/6
f 335/4/6 331/4/6 336/4/6
f 332/4/6 333/4/6 337/4/6
f 337/4/6 333/4/6 338/4/6
f 334/4/6 330/4/6 339/4/6
f 339/4/6 330/4/6 340/4/6
f 327/4/6 335/4/6 341/4/6
f 340/4/6 330/4/6 346/4/6
f 341/4/6 342/4/6 347/4/6
f 343/4/6 344/4/6 348/4/6
f 348/4/6 344/4/6 349/4/6
f 345/4/6 346/4/6 350/4/6
f 341/4/6 347/4/6 351/4/6
f 349/4/6 350/4/6 351/4/6
f 327/4/6 341/4/6 351/4/6
f 348/4/6 349/4/6 351/4/6
f 347/4/6 348/4/6 351/4/6
f 350/4/6 346/4/6 352/4/6
f 351/4/6 350/4/6 352/4/6
f 346/4/6 330/4/6 352/4/6
f 353/2/6 354/2/6 357/2/6
f 357/2/6 354/2/6 358/2/6
f 355/2/6 356/2/6 359/2/6
f 359/2/6 356/2/6 360/2/6
f 361/2/6 362/2/6 366/2/6
f 366/2/6 362/2/6 367/2/6
f 363/2/6 364/2/6 368/2/6
f 368/2/6 364/2/6 369/2/6
f 366/2/6 367/2/6 371/2/6
f 369/2/6 370/2/6 371/2/6
f 368/2/6 369/2/6 371/2/6
f 367/2/6 368/2/6 371/2/6
f 365/2/6 366/2/6 371/2/6
f 371/2/6 370/2/6 372/2/6
f 365/2/6 371/2/6 373/2/6
f 372/2/6 370/2/6 374/2/6
f 365/2/6 373/2/6 375/2/6
f 373/2/6 374/2/6 375/2/6
f 375/2/6 374/2/6 376/2/6
f 376/2/6 374/2/6 377/2/6
f 377/2/6 374/2/6 378/2/6
f 374/2/6 370/2/6 379/2/6
f 378/2/6 374/2/6 379/2/6
f 379/2/6 370/2/6 380/2/6
f 376/2/6 377/2/6 381/2/6
f 381/2/6 377/2/6 382/2/6
f 378/2/6 379/2/6 383/2/6
f 383/2/6 379/2/6 384/2/6
f 385/2/6 386/2/6 387/2/6
f 387/2/6 386/2/6 388/2/6
f 385/2/6 387/2/6 389/2/6
f 389/2/6 387/2/6 390/2/6
f 388/2/6 386/2/6 391/2/6
f 391/2/6 386/2/6 392/2/6
f 390/2/6 391/2/6 393/2/6
f 393/2/6 391/2/6 394/2/6
f 395/2/6 396/2/6 397/2/6
f 397/2/6 396/2/6 398/2/6
f 399/2/6 400/2/6 401/2/6
f 401/2/6 400/2/6 402/2/6
