# MagicaVoxel @ Ephtracy

# group
g door

# material
mtllib door.mtl
usemtl palette

# normals
vn -1 0 0
vn 1 0 0
vn 0 0 1
vn 0 0 -1
vn 0 -1 0
vn 0 1 0

# texcoords
vt 0.142578 0.5
vt 0.369141 0.5

# verts
v -20 0 0.5
v -20 0 -1.5
v -20 80 0.5
v -20 80 -1.5
v 7 41 2.5
v 7 41 1.5
v 7 42 2.5
v 7 42 1.5
v 12 41 1.5
v 12 41 0.5
v 12 42 1.5
v 12 42 0.5
v 16 4 0.5
v 16 4 -0.5
v 16 38 0.5
v 16 38 -0.5
v 16 45 0.5
v 16 45 -0.5
v 16 76 0.5
v 16 76 -0.5
v -16 4 0.5
v -16 4 -0.5
v -16 38 0.5
v -16 38 -0.5
v -16 45 0.5
v -16 45 -0.5
v -16 76 0.5
v -16 76 -0.5
v 13 41 2.5
v 13 41 0.5
v 13 42 2.5
v 13 42 0.5
v 20 0 0.5
v 20 0 -1.5
v 20 80 0.5
v 20 80 -1.5
v 7 41 2.5
v 7 42 2.5
v 13 41 2.5
v 13 42 2.5
v -20 0 0.5
v -20 80 0.5
v -16 4 0.5
v -16 38 0.5
v -16 45 0.5
v -16 76 0.5
v 12 41 0.5
v 12 42 0.5
v 13 41 0.5
v 13 42 0.5
v 16 4 0.5
v 16 38 0.5
v 16 45 0.5
v 16 76 0.5
v 20 0 0.5
v 20 80 0.5
v -16 4 -0.5
v -16 38 -0.5
v -16 45 -0.5
v -16 76 -0.5
v 16 4 -0.5
v 16 38 -0.5
v 16 45 -0.5
v 16 76 -0.5
v 7 41 1.5
v 7 42 1.5
v 12 41 1.5
v 12 42 1.5
v -20 0 -1.5
v -20 80 -1.5
v 20 0 -1.5
v 20 80 -1.5
v -20 0 0.5
v 20 0 0.5
v -20 0 -1.5
v 20 0 -1.5
v -16 38 0.5
v 16 38 0.5
v -16 38 -0.5
v 16 38 -0.5
v 7 41 2.5
v 13 41 2.5
v 7 41 1.5
v 12 41 1.5
v 12 41 0.5
v 13 41 0.5
v -16 76 0.5
v 16 76 0.5
v -16 76 -0.5
v 16 76 -0.5
v -16 4 0.5
v 16 4 0.5
v -16 4 -0.5
v 16 4 -0.5
v 7 42 2.5
v 13 42 2.5
v 7 42 1.5
v 12 42 1.5
v 12 42 0.5
v 13 42 0.5
v -16 45 0.5
v 16 45 0.5
v -16 45 -0.5
v 16 45 -0.5
v -20 80 0.5
v 20 80 0.5
v -20 80 -1.5
v 20 80 -1.5

# faces
f 3/2/1 2/2/1 1/2/1
f 4/2/1 2/2/1 3/2/1
f 7/1/1 6/1/1 5/1/1
f 8/1/1 6/1/1 7/1/1
f 11/1/1 10/1/1 9/1/1
f 12/1/1 10/1/1 11/1/1
f 15/2/1 14/2/1 13/2/1
f 16/2/1 14/2/1 15/2/1
f 19/2/1 18/2/1 17/2/1
f 20/2/1 18/2/1 19/2/1
f 21/2/2 22/2/2 23/2/2
f 23/2/2 22/2/2 24/2/2
f 25/2/2 26/2/2 27/2/2
f 27/2/2 26/2/2 28/2/2
f 29/1/2 30/1/2 31/1/2
f 31/1/2 30/1/2 32/1/2
f 33/2/2 34/2/2 35/2/2
f 35/2/2 34/2/2 36/2/2
f 39/1/3 38/1/3 37/1/3
f 40/1/3 38/1/3 39/1/3
f 43/2/3 42/2/3 41/2/3
f 44/2/3 42/2/3 43/2/3
f 45/2/3 42/2/3 44/2/3
f 46/2/3 42/2/3 45/2/3
f 47/2/3 45/2/3 44/2/3
f 48/2/3 45/2/3 47/2/3
f 49/2/3 47/2/3 44/2/3
f 50/2/3 45/2/3 48/2/3
f 51/2/3 43/2/3 41/2/3
f 52/2/3 50/2/3 49/2/3
f 52/2/3 49/2/3 44/2/3
f 53/2/3 45/2/3 50/2/3
f 53/2/3 50/2/3 52/2/3
f 54/2/3 42/2/3 46/2/3
f 55/2/3 51/2/3 41/2/3
f 55/2/3 54/2/3 53/2/3
f 55/2/3 53/2/3 52/2/3
f 55/2/3 52/2/3 51/2/3
f 56/2/3 42/2/3 54/2/3
f 56/2/3 54/2/3 55/2/3
f 61/2/3 58/2/3 57/2/3
f 62/2/3 58/2/3 61/2/3
f 63/2/3 60/2/3 59/2/3
f 64/2/3 60/2/3 63/2/3
f 65/1/4 66/1/4 67/1/4
f 67/1/4 66/1/4 68/1/4
f 69/2/4 70/2/4 71/2/4
f 71/2/4 70/2/4 72/2/4
f 75/2/5 74/2/5 73/2/5
f 76/2/5 74/2/5 75/2/5
f 79/2/5 78/2/5 77/2/5
f 80/2/5 78/2/5 79/2/5
f 83/1/5 82/1/5 81/1/5
f 84/1/5 82/1/5 83/1/5
f 85/1/5 82/1/5 84/1/5
f 86/1/5 82/1/5 85/1/5
f 89/2/5 88/2/5 87/2/5
f 90/2/5 88/2/5 89/2/5
f 91/2/6 92/2/6 93/2/6
f 93/2/6 92/2/6 94/2/6
f 95/1/6 96/1/6 97/1/6
f 97/1/6 96/1/6 98/1/6
f 98/1/6 96/1/6 99/1/6
f 99/1/6 96/1/6 100/1/6
f 101/2/6 102/2/6 103/2/6
f 103/2/6 102/2/6 104/2/6
f 105/2/6 106/2/6 107/2/6
f 107/2/6 106/2/6 108/2/6
