# MagicaVoxel @ Ephtracy

# group
g spuit

# material
mtllib spuit.mtl
usemtl palette

# normals
vn -1 0 0
vn 1 0 0
vn 0 0 1
vn 0 0 -1
vn 0 -1 0
vn 0 1 0

# texcoords
vt 0.751953 0.5
vt 0.798828 0.5
vt 0.974609 0.5
vt 0.978516 0.5
vt 0.982422 0.5

# verts
v -1 0 3
v -1 0 -3
v -1 1 3
v -1 1 1
v -1 1 -0
v -1 1 -3
v -1 2 3
v -1 2 2
v -1 2 -2
v -1 2 -3
v -1 4 2
v -1 4 1
v -1 4 -0
v -1 4 -2
v 0 2 3
v 0 2 2
v 0 2 -2
v 0 2 -3
v 0 4 3
v 0 4 2
v 0 4 1
v 0 4 -0
v 0 4 -1
v 0 4 -2
v 0 4 -3
v 0 5 2
v 0 5 1
v 0 6 3
v 0 6 2
v 0 6 -0
v 0 6 -1
v 0 7 -1
v 0 7 -2
v 0 8 3
v 0 8 2
v 0 8 1
v 0 8 -1
v 0 9 4
v 0 9 2
v 0 9 1
v 0 9 -0
v 0 9 -1
v 0 9 -2
v 0 10 4
v 0 10 1
v 0 10 -0
v 0 10 -1
v 0 10 -2
v 0 10 -3
v 0 11 1
v 0 11 -1
v 0 11 -2
v 0 11 -3
v 1 2 3
v 1 2 2
v 1 2 -2
v 1 2 -3
v 1 4 3
v 1 4 2
v 1 4 1
v 1 4 -0
v 1 4 -1
v 1 4 -2
v 1 4 -3
v 1 5 2
v 1 5 1
v 1 6 3
v 1 6 2
v 1 6 -0
v 1 6 -1
v 1 7 -1
v 1 7 -2
v 1 8 3
v 1 8 2
v 1 8 1
v 1 8 -1
v 1 9 4
v 1 9 2
v 1 9 1
v 1 9 -0
v 1 9 -1
v 1 9 -2
v 1 10 4
v 1 10 1
v 1 10 -0
v 1 10 -1
v 1 10 -2
v 1 10 -3
v 1 11 1
v 1 11 -1
v 1 11 -2
v 1 11 -3
v 2 0 3
v 2 0 -3
v 2 1 3
v 2 1 1
v 2 1 -0
v 2 1 -3
v 2 2 3
v 2 2 2
v 2 2 -2
v 2 2 -3
v 2 4 2
v 2 4 1
v 2 4 -0
v 2 4 -2
v 0 9 4
v 0 10 4
v 1 9 4
v 1 10 4
v -1 0 3
v -1 1 3
v -1 2 3
v 0 1 3
v 0 2 3
v 0 4 3
v 0 6 3
v 0 8 3
v 1 1 3
v 1 2 3
v 1 4 3
v 1 6 3
v 1 8 3
v 2 0 3
v 2 1 3
v 2 2 3
v -1 2 2
v -1 4 2
v 0 2 2
v 0 4 2
v 0 5 2
v 0 8 2
v 0 9 2
v 1 2 2
v 1 4 2
v 1 5 2
v 1 8 2
v 1 9 2
v 2 2 2
v 2 4 2
v 0 5 1
v 0 8 1
v 0 10 1
v 0 11 1
v 1 5 1
v 1 8 1
v 1 10 1
v 1 11 1
v 0 10 -2
v 0 11 -2
v 1 10 -2
v 1 11 -2
v 0 6 2
v 0 8 2
v 1 6 2
v 1 8 2
v 0 7 -1
v 0 8 -1
v 0 9 -1
v 0 10 -1
v 0 11 -1
v 1 7 -1
v 1 8 -1
v 1 9 -1
v 1 10 -1
v 1 11 -1
v -1 2 -2
v -1 4 -2
v 0 2 -2
v 0 4 -2
v 0 7 -2
v 0 9 -2
v 0 10 -2
v 1 2 -2
v 1 4 -2
v 1 7 -2
v 1 9 -2
v 1 10 -2
v 2 2 -2
v 2 4 -2
v -1 0 -3
v -1 1 -3
v -1 2 -3
v 0 1 -3
v 0 2 -3
v 0 4 -3
v 0 10 -3
v 0 11 -3
v 1 1 -3
v 1 2 -3
v 1 4 -3
v 1 10 -3
v 1 11 -3
v 2 0 -3
v 2 1 -3
v 2 2 -3
v -1 0 3
v 2 0 3
v 0 0 2
v 1 0 2
v 0 0 -2
v 1 0 -2
v -1 0 -3
v 2 0 -3
v 0 6 3
v 1 6 3
v 0 6 2
v 1 6 2
v 0 8 2
v 1 8 2
v 0 8 1
v 1 8 1
v 0 9 4
v 1 9 4
v 0 9 2
v 1 9 2
v 0 9 -1
v 1 9 -1
v 0 9 -2
v 1 9 -2
v 0 10 -2
v 1 10 -2
v 0 10 -3
v 1 10 -3
v -1 2 3
v 0 2 3
v 1 2 3
v 2 2 3
v -1 2 2
v 0 2 2
v 1 2 2
v 2 2 2
v -1 2 -2
v 0 2 -2
v 1 2 -2
v 2 2 -2
v -1 2 -3
v 0 2 -3
v 1 2 -3
v 2 2 -3
v 0 4 3
v 1 4 3
v -1 4 2
v 0 4 2
v 1 4 2
v 2 4 2
v -1 4 1
v 0 4 1
v 1 4 1
v 2 4 1
v -1 4 -0
v 0 4 -0
v 1 4 -0
v 2 4 -0
v 0 4 -1
v 1 4 -1
v -1 4 -2
v 0 4 -2
v 1 4 -2
v 2 4 -2
v 0 4 -3
v 1 4 -3
v 0 5 2
v 1 5 2
v 0 5 1
v 1 5 1
v 0 7 -1
v 1 7 -1
v 0 7 -2
v 1 7 -2
v 0 8 3
v 1 8 3
v 0 8 2
v 1 8 2
v 0 10 4
v 1 10 4
v 0 10 1
v 1 10 1
v 0 10 -1
v 1 10 -1
v 0 10 -2
v 1 10 -2
v 0 11 1
v 1 11 1
v 0 11 -1
v 1 11 -1
v 0 11 -2
v 1 11 -2
v 0 11 -3
v 1 11 -3

# faces
f 3/2/1 2/2/1 1/2/1
f 4/2/1 2/2/1 3/2/1
f 5/2/1 2/2/1 4/2/1
f 6/2/1 2/2/1 5/2/1
f 7/1/1 4/1/1 3/1/1
f 8/1/1 4/1/1 7/1/1
f 9/1/1 6/1/1 5/1/1
f 10/1/1 6/1/1 9/1/1
f 11/1/1 4/1/1 8/1/1
f 12/2/1 5/2/1 4/2/1
f 12/1/1 4/1/1 11/1/1
f 13/1/1 9/1/1 5/1/1
f 13/2/1 5/2/1 12/2/1
f 14/1/1 9/1/1 13/1/1
f 19/2/1 16/2/1 15/2/1
f 20/2/1 16/2/1 19/2/1
f 24/2/1 18/2/1 17/2/1
f 25/2/1 18/2/1 24/2/1
f 26/2/1 21/2/1 20/2/1
f 26/2/1 22/2/1 21/2/1
f 27/2/1 22/2/1 26/2/1
f 30/1/1 23/1/1 22/1/1
f 30/2/1 22/2/1 27/2/1
f 31/2/1 24/2/1 23/2/1
f 31/1/1 23/1/1 30/1/1
f 32/2/1 31/2/1 30/2/1
f 32/2/1 24/2/1 31/2/1
f 33/2/1 24/2/1 32/2/1
f 34/3/1 29/3/1 28/3/1
f 35/3/1 29/3/1 34/3/1
f 36/2/1 30/2/1 27/2/1
f 36/2/1 32/2/1 30/2/1
f 37/2/1 32/2/1 36/2/1
f 39/3/1 36/3/1 35/3/1
f 40/4/1 37/4/1 36/4/1
f 40/3/1 36/3/1 39/3/1
f 41/4/1 37/4/1 40/4/1
f 42/4/1 37/4/1 41/4/1
f 44/5/1 39/5/1 38/5/1
f 44/5/1 40/5/1 39/5/1
f 44/5/1 41/5/1 40/5/1
f 45/5/1 41/5/1 44/5/1
f 46/3/1 42/3/1 41/3/1
f 46/5/1 41/5/1 45/5/1
f 46/3/1 43/3/1 42/3/1
f 47/3/1 43/3/1 46/3/1
f 48/3/1 43/3/1 47/3/1
f 50/4/1 47/4/1 46/4/1
f 50/4/1 46/4/1 45/4/1
f 51/4/1 47/4/1 50/4/1
f 52/3/1 49/3/1 48/3/1
f 53/3/1 49/3/1 52/3/1
f 54/2/2 55/2/2 58/2/2
f 58/2/2 55/2/2 59/2/2
f 56/2/2 57/2/2 63/2/2
f 63/2/2 57/2/2 64/2/2
f 59/2/2 60/2/2 65/2/2
f 60/2/2 61/2/2 65/2/2
f 65/2/2 61/2/2 66/2/2
f 61/1/2 62/1/2 69/1/2
f 66/2/2 61/2/2 69/2/2
f 62/2/2 63/2/2 70/2/2
f 69/1/2 62/1/2 70/1/2
f 69/2/2 70/2/2 71/2/2
f 70/2/2 63/2/2 71/2/2
f 71/2/2 63/2/2 72/2/2
f 67/3/2 68/3/2 73/3/2
f 73/3/2 68/3/2 74/3/2
f 66/2/2 69/2/2 75/2/2
f 69/2/2 71/2/2 75/2/2
f 75/2/2 71/2/2 76/2/2
f 74/3/2 75/3/2 78/3/2
f 75/4/2 76/4/2 79/4/2
f 78/3/2 75/3/2 79/3/2
f 79/4/2 76/4/2 80/4/2
f 80/4/2 76/4/2 81/4/2
f 77/5/2 78/5/2 83/5/2
f 78/5/2 79/5/2 83/5/2
f 79/5/2 80/5/2 83/5/2
f 83/5/2 80/5/2 84/5/2
f 80/3/2 81/3/2 85/3/2
f 84/5/2 80/5/2 85/5/2
f 81/3/2 82/3/2 85/3/2
f 85/3/2 82/3/2 86/3/2
f 86/3/2 82/3/2 87/3/2
f 85/4/2 86/4/2 89/4/2
f 84/4/2 85/4/2 89/4/2
f 89/4/2 86/4/2 90/4/2
f 87/3/2 88/3/2 91/3/2
f 91/3/2 88/3/2 92/3/2
f 93/2/2 94/2/2 95/2/2
f 95/2/2 94/2/2 96/2/2
f 96/2/2 94/2/2 97/2/2
f 97/2/2 94/2/2 98/2/2
f 95/1/2 96/1/2 99/1/2
f 99/1/2 96/1/2 100/1/2
f 97/1/2 98/1/2 101/1/2
f 101/1/2 98/1/2 102/1/2
f 100/1/2 96/1/2 103/1/2
f 96/2/2 97/2/2 104/2/2
f 103/1/2 96/1/2 104/1/2
f 97/1/2 101/1/2 105/1/2
f 104/2/2 97/2/2 105/2/2
f 105/1/2 101/1/2 106/1/2
f 109/5/3 108/5/3 107/5/3
f 110/5/3 108/5/3 109/5/3
f 114/2/3 112/2/3 111/2/3
f 114/1/3 113/1/3 112/1/3
f 115/1/3 113/1/3 114/1/3
f 119/2/3 114/2/3 111/2/3
f 119/2/3 115/2/3 114/2/3
f 119/2/3 116/2/3 115/2/3
f 120/2/3 116/2/3 119/2/3
f 121/2/3 116/2/3 120/2/3
f 122/3/3 118/3/3 117/3/3
f 123/3/3 118/3/3 122/3/3
f 124/2/3 119/2/3 111/2/3
f 125/1/3 120/1/3 119/1/3
f 125/2/3 119/2/3 124/2/3
f 126/1/3 120/1/3 125/1/3
f 129/1/3 128/1/3 127/1/3
f 130/1/3 128/1/3 129/1/3
f 135/2/3 131/2/3 130/2/3
f 136/2/3 131/2/3 135/2/3
f 137/3/3 133/3/3 132/3/3
f 138/3/3 133/3/3 137/3/3
f 139/1/3 135/1/3 134/1/3
f 140/1/3 135/1/3 139/1/3
f 145/2/3 142/2/3 141/2/3
f 146/2/3 142/2/3 145/2/3
f 147/4/3 144/4/3 143/4/3
f 148/4/3 144/4/3 147/4/3
f 151/3/3 150/3/3 149/3/3
f 152/3/3 150/3/3 151/3/3
f 153/3/4 154/3/4 155/3/4
f 155/3/4 154/3/4 156/3/4
f 157/2/4 158/2/4 162/2/4
f 158/4/4 159/4/4 163/4/4
f 162/2/4 158/2/4 163/2/4
f 163/4/4 159/4/4 164/4/4
f 160/4/4 161/4/4 165/4/4
f 165/4/4 161/4/4 166/4/4
f 167/1/4 168/1/4 169/1/4
f 169/1/4 168/1/4 170/1/4
f 170/2/4 171/2/4 175/2/4
f 175/2/4 171/2/4 176/2/4
f 172/3/4 173/3/4 177/3/4
f 177/3/4 173/3/4 178/3/4
f 174/1/4 175/1/4 179/1/4
f 179/1/4 175/1/4 180/1/4
f 181/2/4 182/2/4 184/2/4
f 182/1/4 183/1/4 184/1/4
f 184/1/4 183/1/4 185/1/4
f 181/2/4 184/2/4 189/2/4
f 184/2/4 185/2/4 189/2/4
f 185/2/4 186/2/4 189/2/4
f 189/2/4 186/2/4 190/2/4
f 190/2/4 186/2/4 191/2/4
f 187/3/4 188/3/4 192/3/4
f 192/3/4 188/3/4 193/3/4
f 181/2/4 189/2/4 194/2/4
f 189/1/4 190/1/4 195/1/4
f 194/2/4 189/2/4 195/2/4
f 195/1/4 190/1/4 196/1/4
f 199/2/5 198/2/5 197/2/5
f 200/2/5 198/2/5 199/2/5
f 201/2/5 199/2/5 197/2/5
f 201/5/5 200/5/5 199/5/5
f 202/2/5 198/2/5 200/2/5
f 202/5/5 200/5/5 201/5/5
f 203/2/5 201/2/5 197/2/5
f 203/2/5 202/2/5 201/2/5
f 204/2/5 198/2/5 202/2/5
f 204/2/5 202/2/5 203/2/5
f 207/3/5 206/3/5 205/3/5
f 208/3/5 206/3/5 207/3/5
f 211/3/5 210/3/5 209/3/5
f 212/3/5 210/3/5 211/3/5
f 215/5/5 214/5/5 213/5/5
f 216/5/5 214/5/5 215/5/5
f 219/3/5 218/3/5 217/3/5
f 220/3/5 218/3/5 219/3/5
f 223/3/5 222/3/5 221/3/5
f 224/3/5 222/3/5 223/3/5
f 225/1/6 226/1/6 229/1/6
f 229/1/6 226/1/6 230/1/6
f 227/1/6 228/1/6 231/1/6
f 231/1/6 228/1/6 232/1/6
f 233/1/6 234/1/6 237/1/6
f 237/1/6 234/1/6 238/1/6
f 235/1/6 236/1/6 239/1/6
f 239/1/6 236/1/6 240/1/6
f 241/2/6 242/2/6 244/2/6
f 244/2/6 242/2/6 245/2/6
f 243/1/6 244/1/6 247/1/6
f 247/1/6 244/1/6 248/1/6
f 245/1/6 246/1/6 249/1/6
f 249/1/6 246/1/6 250/1/6
f 247/2/6 248/2/6 251/2/6
f 251/2/6 248/2/6 252/2/6
f 249/2/6 250/2/6 253/2/6
f 253/2/6 250/2/6 254/2/6
f 251/1/6 252/1/6 255/1/6
f 253/1/6 254/1/6 256/1/6
f 251/1/6 255/1/6 257/1/6
f 257/1/6 255/1/6 258/1/6
f 256/1/6 254/1/6 259/1/6
f 259/1/6 254/1/6 260/1/6
f 258/2/6 259/2/6 261/2/6
f 261/2/6 259/2/6 262/2/6
f 263/2/6 264/2/6 265/2/6
f 265/2/6 264/2/6 266/2/6
f 267/2/6 268/2/6 269/2/6
f 269/2/6 268/2/6 270/2/6
f 271/3/6 272/3/6 273/3/6
f 273/3/6 272/3/6 274/3/6
f 275/5/6 276/5/6 277/5/6
f 277/5/6 276/5/6 278/5/6
f 279/3/6 280/3/6 281/3/6
f 281/3/6 280/3/6 282/3/6
f 283/4/6 284/4/6 285/4/6
f 285/4/6 284/4/6 286/4/6
f 287/3/6 288/3/6 289/3/6
f 289/3/6 288/3/6 290/3/6
