# MagicaVoxel @ Ephtracy

# group
g timer

# material
mtllib timer.mtl
usemtl palette

# normals
vn -1 0 0
vn 1 0 0
vn 0 0 1
vn 0 0 -1
vn 0 -1 0
vn 0 1 0

# texcoords
vt 0.970703 0.5
vt 0.986328 0.5
vt 0.990234 0.5
vt 0.994141 0.5

# verts
v -7 0 3
v -7 0 -3
v -7 7 3
v -7 7 -3
v -6 7 3
v -6 7 -3
v -6 8 3
v -6 8 -3
v 6 7 3
v 6 7 -3
v 6 8 3
v 6 8 -3
v 7 0 3
v 7 0 -3
v 7 7 3
v 7 7 -3
v -7 0 3
v -7 7 3
v -6 1 3
v -6 6 3
v -6 7 3
v -6 8 3
v -5 2 3
v -5 5 3
v -4 2 3
v -4 5 3
v -3 2 3
v -3 5 3
v -2 2 3
v -2 5 3
v -1 2 3
v -1 3 3
v -1 4 3
v -1 5 3
v 0 2 3
v 0 3 3
v 0 4 3
v 0 5 3
v 1 2 3
v 1 5 3
v 2 2 3
v 2 5 3
v 3 2 3
v 3 3 3
v 3 4 3
v 3 5 3
v 4 2 3
v 4 3 3
v 4 4 3
v 5 3 3
v 5 4 3
v 5 5 3
v 6 1 3
v 6 6 3
v 6 7 3
v 6 8 3
v 7 0 3
v 7 7 3
v -7 0 -3
v -7 7 -3
v -6 7 -3
v -6 8 -3
v 6 7 -3
v 6 8 -3
v 7 0 -3
v 7 7 -3
v -7 0 3
v 7 0 3
v -7 0 -3
v 7 0 -3
v -7 7 3
v -6 7 3
v 6 7 3
v 7 7 3
v -7 7 -3
v -6 7 -3
v 6 7 -3
v 7 7 -3
v -6 8 3
v 6 8 3
v -6 8 -3
v 6 8 -3

# faces
f 3/2/1 2/2/1 1/2/1
f 4/2/1 2/2/1 3/2/1
f 7/2/1 6/2/1 5/2/1
f 8/2/1 6/2/1 7/2/1
f 9/2/2 10/2/2 11/2/2
f 11/2/2 10/2/2 12/2/2
f 13/2/2 14/2/2 15/2/2
f 15/2/2 14/2/2 16/2/2
f 19/2/3 18/2/3 17/2/3
f 20/2/3 18/2/3 19/2/3
f 21/2/3 18/2/3 20/2/3
f 23/1/3 20/1/3 19/1/3
f 24/1/3 20/1/3 23/1/3
f 25/1/3 23/1/3 19/1/3
f 25/4/3 24/4/3 23/4/3
f 26/1/3 20/1/3 24/1/3
f 26/4/3 24/4/3 25/4/3
f 27/1/3 25/1/3 19/1/3
f 27/1/3 26/1/3 25/1/3
f 28/1/3 20/1/3 26/1/3
f 28/1/3 26/1/3 27/1/3
f 29/1/3 27/1/3 19/1/3
f 29/4/3 28/4/3 27/4/3
f 30/1/3 20/1/3 28/1/3
f 30/4/3 28/4/3 29/4/3
f 31/1/3 29/1/3 19/1/3
f 31/1/3 30/1/3 29/1/3
f 32/1/3 30/1/3 31/1/3
f 33/1/3 30/1/3 32/1/3
f 34/1/3 20/1/3 30/1/3
f 34/1/3 30/1/3 33/1/3
f 35/1/3 31/1/3 19/1/3
f 35/4/3 32/4/3 31/4/3
f 36/1/3 33/1/3 32/1/3
f 36/4/3 32/4/3 35/4/3
f 37/4/3 34/4/3 33/4/3
f 37/1/3 33/1/3 36/1/3
f 38/1/3 20/1/3 34/1/3
f 38/4/3 34/4/3 37/4/3
f 39/1/3 35/1/3 19/1/3
f 39/1/3 37/1/3 36/1/3
f 39/1/3 38/1/3 37/1/3
f 39/1/3 36/1/3 35/1/3
f 40/1/3 20/1/3 38/1/3
f 40/1/3 38/1/3 39/1/3
f 41/1/3 39/1/3 19/1/3
f 41/4/3 40/4/3 39/4/3
f 42/1/3 20/1/3 40/1/3
f 42/4/3 40/4/3 41/4/3
f 43/1/3 41/1/3 19/1/3
f 43/1/3 42/1/3 41/1/3
f 44/1/3 42/1/3 43/1/3
f 45/1/3 42/1/3 44/1/3
f 46/1/3 20/1/3 42/1/3
f 46/1/3 42/1/3 45/1/3
f 47/1/3 43/1/3 19/1/3
f 47/3/3 44/3/3 43/3/3
f 48/1/3 45/1/3 44/1/3
f 48/3/3 44/3/3 47/3/3
f 49/3/3 46/3/3 45/3/3
f 49/1/3 45/1/3 48/1/3
f 50/1/3 48/1/3 47/1/3
f 50/4/3 49/4/3 48/4/3
f 51/3/3 46/3/3 49/3/3
f 51/4/3 49/4/3 50/4/3
f 52/1/3 20/1/3 46/1/3
f 52/3/3 46/3/3 51/3/3
f 53/2/3 19/2/3 17/2/3
f 53/1/3 47/1/3 19/1/3
f 53/1/3 52/1/3 51/1/3
f 53/1/3 50/1/3 47/1/3
f 53/1/3 51/1/3 50/1/3
f 54/1/3 20/1/3 52/1/3
f 54/1/3 52/1/3 53/1/3
f 54/2/3 22/2/3 21/2/3
f 54/2/3 21/2/3 20/2/3
f 55/2/3 22/2/3 54/2/3
f 56/2/3 22/2/3 55/2/3
f 57/2/3 53/2/3 17/2/3
f 57/2/3 54/2/3 53/2/3
f 57/2/3 55/2/3 54/2/3
f 58/2/3 55/2/3 57/2/3
f 59/2/4 60/2/4 61/2/4
f 59/2/4 61/2/4 63/2/4
f 61/2/4 62/2/4 63/2/4
f 63/2/4 62/2/4 64/2/4
f 59/2/4 63/2/4 65/2/4
f 65/2/4 63/2/4 66/2/4
f 69/2/5 68/2/5 67/2/5
f 70/2/5 68/2/5 69/2/5
f 71/2/6 72/2/6 75/2/6
f 75/2/6 72/2/6 76/2/6
f 73/2/6 74/2/6 77/2/6
f 77/2/6 74/2/6 78/2/6
f 79/2/6 80/2/6 81/2/6
f 81/2/6 80/2/6 82/2/6
